name rise30.6535peak61.5555fall82.9339.mot
datacolumns 19
datarows 15
range 2.22832300000000 2.25167600000000
endheader
time	ground_force1_vx	ground_force1_vy	ground_force1_vz	ground_force1_px	ground_force1_py	ground_force1_pz	ground_force2_vx	ground_force2_vy	ground_force2_vz	ground_force2_px	ground_force2_py	ground_force2_pz	ground_torque1_x	ground_torque1_y	ground_torque1_z	ground_torque2_x	ground_torque2_y	ground_torque2_z	
2.22832300000000	60.48459600000000	769.83064999999999	55.96325100000000	0.29548400000000	0.00000000000000	0.11625300000000	0.00000000000000	0.00000000000000	0.00000000000000	0.00000000000000	0.00000000000000	0.00000000000000	0.00000000000000	18.80933900000000	0.00000000000000	0.00000000000000	0.00000000000000	0.00000000000000	
2.22998700000000	59.82236400000000	772.45547199999999	56.05747800000000	0.29469100000000	0.00000000000000	0.11624200000000	0.00000000000000	0.00000000000000	0.00000000000000	0.00000000000000	0.00000000000000	0.00000000000000	0.00000000000000	18.87529400000000	0.00000000000000	0.00000000000000	0.00000000000000	0.00000000000000	
2.23166700000000	59.15858200000000	774.94340899999997	56.15520900000000	0.29390600000000	0.00000000000000	0.11623200000000	0.00000000000000	0.00000000000000	0.00000000000000	0.00000000000000	0.00000000000000	0.00000000000000	0.00000000000000	18.94531300000000	0.00000000000000	0.00000000000000	0.00000000000000	0.00000000000000	
2.23332400000000	58.49346900000000	777.29234699999995	56.25617100000000	0.29312600000000	0.00000000000000	0.11622500000000	0.00000000000000	0.00000000000000	0.00000000000000	0.00000000000000	0.00000000000000	0.00000000000000	0.00000000000000	19.01914200000000	0.00000000000000	0.00000000000000	0.00000000000000	0.00000000000000	
2.23498900000000	57.82720400000000	779.50036100000000	56.36001400000000	0.29235100000000	0.00000000000000	0.11622000000000	0.00000000000000	0.00000000000000	0.00000000000000	0.00000000000000	0.00000000000000	0.00000000000000	0.00000000000000	19.09648700000000	0.00000000000000	0.00000000000000	0.00000000000000	0.00000000000000	
2.23665200000000	57.15992700000000	781.56573100000003	56.46631300000000	0.29157800000000	0.00000000000000	0.11621700000000	0.00000000000000	0.00000000000000	0.00000000000000	0.00000000000000	0.00000000000000	0.00000000000000	0.00000000000000	19.17701100000000	0.00000000000000	0.00000000000000	0.00000000000000	0.00000000000000	
2.23832600000000	56.49175000000000	783.48694999999998	56.57457700000000	0.29080400000000	0.00000000000000	0.11621600000000	0.00000000000000	0.00000000000000	0.00000000000000	0.00000000000000	0.00000000000000	0.00000000000000	0.00000000000000	19.26034200000000	0.00000000000000	0.00000000000000	0.00000000000000	0.00000000000000	
2.23998700000000	55.82275400000000	785.26273800000001	56.68425200000000	0.29002800000000	0.00000000000000	0.11621800000000	0.00000000000000	0.00000000000000	0.00000000000000	0.00000000000000	0.00000000000000	0.00000000000000	0.00000000000000	19.34607100000000	0.00000000000000	0.00000000000000	0.00000000000000	0.00000000000000	
2.24165100000000	55.15299700000000	786.89205200000004	56.79473000000000	0.28924800000000	0.00000000000000	0.11622100000000	0.00000000000000	0.00000000000000	0.00000000000000	0.00000000000000	0.00000000000000	0.00000000000000	0.00000000000000	19.43376000000000	0.00000000000000	0.00000000000000	0.00000000000000	0.00000000000000	
2.24332200000000	54.48251800000000	788.37409400000001	56.90535200000000	0.28846100000000	0.00000000000000	0.11622800000000	0.00000000000000	0.00000000000000	0.00000000000000	0.00000000000000	0.00000000000000	0.00000000000000	0.00000000000000	19.52294400000000	0.00000000000000	0.00000000000000	0.00000000000000	0.00000000000000	
2.24499100000000	53.81134100000000	789.70832199999995	57.01541700000000	0.28766500000000	0.00000000000000	0.11623700000000	0.00000000000000	0.00000000000000	0.00000000000000	0.00000000000000	0.00000000000000	0.00000000000000	0.00000000000000	19.61313500000000	0.00000000000000	0.00000000000000	0.00000000000000	0.00000000000000	
2.24666900000000	53.13947900000000	790.89445100000000	57.12418600000000	0.28685800000000	0.00000000000000	0.11624800000000	0.00000000000000	0.00000000000000	0.00000000000000	0.00000000000000	0.00000000000000	0.00000000000000	0.00000000000000	19.70382300000000	0.00000000000000	0.00000000000000	0.00000000000000	0.00000000000000	
2.24832400000000	52.46693600000000	791.93246599999998	57.23089100000000	0.28604000000000	0.00000000000000	0.11626200000000	0.00000000000000	0.00000000000000	0.00000000000000	0.00000000000000	0.00000000000000	0.00000000000000	0.00000000000000	19.79448700000000	0.00000000000000	0.00000000000000	0.00000000000000	0.00000000000000	
2.24998700000000	51.79371500000000	792.82262100000003	57.33474200000000	0.28520600000000	0.00000000000000	0.11627900000000	0.00000000000000	0.00000000000000	0.00000000000000	0.00000000000000	0.00000000000000	0.00000000000000	0.00000000000000	19.88459200000000	0.00000000000000	0.00000000000000	0.00000000000000	0.00000000000000	
2.25167600000000	51.11982000000000	793.56544399999996	57.43493100000000	0.28435700000000	0.00000000000000	0.11629800000000	0.00000000000000	0.00000000000000	0.00000000000000	0.00000000000000	0.00000000000000	0.00000000000000	0.00000000000000	19.97359400000000	0.00000000000000	0.00000000000000	0.00000000000000	0.00000000000000	
